<svg width="84" height="80" viewBox="0 0 84 80" fill="none" xmlns="http://www.w3.org/2000/svg">
<path d="M63.1486 56.6606C63.1657 59.712 60.613 62.1967 57.4494 62.2132C57.2142 62.215 56.9772 62.2022 56.744 62.1748C53.8081 61.7562 51.6572 59.2933 51.7293 56.4339V23.5572C51.6591 20.694 53.8156 18.2313 56.7534 17.8162C59.896 17.4616 62.7427 19.6299 63.1107 22.6595C63.1372 22.8825 63.1505 23.1056 63.1486 23.3305V56.6606Z" fill="#F9AB00"/>
<path d="M27.2125 51.2121C30.3665 51.2121 32.9232 53.6767 32.9232 56.7171C32.9232 59.7577 30.3665 62.2223 27.2125 62.2223C24.0585 62.2223 21.502 59.7577 21.502 56.7171C21.502 53.6767 24.0585 51.2121 27.2125 51.2121ZM42.2373 34.5287C39.0681 34.697 36.61 37.2584 36.684 40.3171V55.1027C36.684 59.1159 38.5161 61.5513 41.1998 62.0704C44.2969 62.6756 47.3144 60.7467 47.9422 57.7611C48.0199 57.3954 48.0579 57.0243 48.056 56.6513V40.0613C48.0617 37.0097 45.5013 34.5324 42.3359 34.5269C42.3036 34.5269 42.2696 34.5269 42.2373 34.5287Z" fill="#E37400"/>
</svg>
