<svg width="81" height="80" viewBox="0 0 81 80" fill="none" xmlns="http://www.w3.org/2000/svg">
<path d="M33 62.2223C37.14 62.2223 40.5 58.9037 40.5 54.8148V47.4074H33C28.8601 47.4074 25.5 50.726 25.5 54.8148C25.5 58.9037 28.8601 62.2223 33 62.2223Z" fill="#0ACF83"/>
<path d="M25.5 40C25.5 35.911 28.8601 32.5926 33 32.5926H40.5V47.4073H33C28.8601 47.4073 25.5 44.0889 25.5 40Z" fill="#A259FF"/>
<path d="M25.5 25.1851C25.5 21.0963 28.8601 17.7778 33 17.7778H40.5V32.5925H33C28.8601 32.5925 25.5 29.2741 25.5 25.1851Z" fill="#F24E1E"/>
<path d="M40.5 17.7778H48C52.14 17.7778 55.5 21.0963 55.5 25.1851C55.5 29.2741 52.14 32.5925 48 32.5925H40.5V17.7778Z" fill="#FF7262"/>
<path d="M55.5 40C55.5 44.0889 52.14 47.4073 48 47.4073C43.8601 47.4073 40.5 44.0889 40.5 40C40.5 35.911 43.8601 32.5926 48 32.5926C52.14 32.5926 55.5 35.911 55.5 40Z" fill="#1ABCFE"/>
</svg>
