<svg width="51" height="51" viewBox="0 0 51 51" fill="none" xmlns="http://www.w3.org/2000/svg">
<path fill-rule="evenodd" clip-rule="evenodd" d="M51 51H39.7279V33.0709C39.7279 28.3789 37.966 25.1749 34.0877 25.1749C31.1227 25.1749 29.4734 27.3373 28.706 29.4206C28.4174 30.1678 28.4627 31.2095 28.4627 32.2511V51H17.2959C17.2959 51 17.4397 19.241 17.2959 16.3544H28.4627V21.7923C29.1234 19.4144 32.691 16.0217 38.3845 16.0217C45.4491 16.0217 51 21.0043 51 31.736V51ZM6.00408 12.0207H5.93107C2.33325 12.0207 0 9.37251 0 6.01543C0 2.59333 2.40165 0 6.07249 0C9.73986 0 11.9954 2.58696 12.0661 6.00524C12.0661 9.36231 9.73983 12.0207 6.00408 12.0207ZM1.28657 16.3544H11.2269V51H1.28657V16.3544Z" fill="white" fill-opacity="0.8"/>
</svg>
