<svg width="84" height="80" viewBox="0 0 84 80" fill="none" xmlns="http://www.w3.org/2000/svg">
<path d="M65.4673 17.7777H19.3633V62.2223H65.4673V17.7777Z" fill="#F7DF1E"/>
<path d="M50.3348 52.5001C51.2635 53.9618 52.4718 55.0363 54.6086 55.0363C56.4037 55.0363 57.5505 54.1714 57.5505 52.9764C57.5505 51.5443 56.3723 51.037 54.3964 50.2038L53.3133 49.7558C50.187 48.472 48.1101 46.8634 48.1101 43.4631C48.1101 40.3308 50.5859 37.9464 54.4549 37.9464C57.2095 37.9464 59.1897 38.8706 60.6168 41.2903L57.2431 43.3784C56.5004 42.0946 55.699 41.5887 54.4549 41.5887C53.1859 41.5887 52.3817 42.3647 52.3817 43.3784C52.3817 44.6314 53.1867 45.1386 55.0456 45.9146L56.1286 46.3618C59.8095 47.8836 61.8879 49.4348 61.8879 52.9227C61.8879 56.6828 58.8238 58.7428 54.7088 58.7428C50.6854 58.7428 48.0859 56.8946 46.8142 54.472L50.3348 52.5001ZM35.0304 52.8621C35.711 54.0261 36.3302 55.0103 37.8186 55.0103C39.2421 55.0103 40.14 54.4734 40.14 52.3858V38.1848H44.4723V52.4423C44.4723 56.7668 41.8421 58.7351 38.0031 58.7351C34.5342 58.7351 32.5255 57.0046 31.5039 54.9203L35.0304 52.8621Z" fill="black"/>
</svg>
