<svg width="83" height="80" viewBox="0 0 83 80" fill="none" xmlns="http://www.w3.org/2000/svg">
<path d="M29.3242 33.6176H38.0213V34.2806H30.1215V39.271H37.5501V39.9342H30.1215V45.4132H38.1118V46.0762H29.3242V33.6176ZM38.8003 33.6176H39.7244L43.8193 39.0966L48.0047 33.6176L53.6975 26.658L44.3447 39.6723L49.1642 46.0762H48.2039L43.8193 40.2482L39.4164 46.0762H38.4742L43.33 39.6723L38.8003 33.6176ZM49.5085 34.2806V33.6176H59.4194V34.2806H54.8535V46.0762H54.0563V34.2806H49.5085Z" fill="black"/>
<path d="M18.4453 33.6176H19.4418L33.1833 53.342L27.5046 46.0761L19.2787 34.5598L19.2424 46.0761H18.4453V33.6176Z" fill="black"/>
<path d="M59.3397 45.213C59.5045 45.213 59.6247 45.092 59.6247 44.9354C59.6247 44.779 59.5045 44.658 59.3397 44.658C59.1768 44.658 59.0547 44.779 59.0547 44.9354C59.0547 45.092 59.1768 45.213 59.3397 45.213ZM60.123 44.483C60.123 44.9449 60.4701 45.2466 60.9761 45.2466C61.5152 45.2466 61.841 44.9354 61.841 44.3954V42.4939H61.4067V44.3936C61.4067 44.6934 61.2496 44.8536 60.9723 44.8536C60.7242 44.8536 60.5554 44.7046 60.5496 44.483H60.123ZM62.4091 44.4587C62.4402 44.9393 62.8571 45.2466 63.4776 45.2466C64.1407 45.2466 64.5557 44.9243 64.5557 44.4103C64.5557 44.0061 64.3191 43.7827 63.7451 43.6541L63.4368 43.5816C63.0723 43.4996 62.9249 43.3897 62.9249 43.1979C62.9249 42.9557 63.1537 42.7974 63.497 42.7974C63.8227 42.7974 64.0476 42.952 64.0883 43.1997H64.511C64.4859 42.7471 64.0708 42.4287 63.5027 42.4287C62.892 42.4287 62.4848 42.7471 62.4848 43.2259C62.4848 43.6207 62.7156 43.8553 63.2216 43.9689L63.5822 44.0527C63.9526 44.1366 64.1155 44.2594 64.1155 44.4643C64.1155 44.7027 63.8595 44.8759 63.5105 44.8759C63.1362 44.8759 62.8764 44.7139 62.8396 44.4587H62.4091Z" fill="black"/>
</svg>
