<svg width="78" height="80" viewBox="0 0 78 80" fill="none" xmlns="http://www.w3.org/2000/svg">
<path d="M39.6121 18.252C40.7554 17.6211 42.2447 17.6183 43.3871 18.252C49.1341 21.382 54.883 24.5071 60.6292 27.639C61.7099 28.2258 62.4329 29.3851 62.4218 30.5854V49.417C62.43 50.667 61.6355 51.854 60.4953 52.4274C54.7672 55.5403 49.0418 58.6568 43.3146 61.7696C42.1476 62.4127 40.6285 62.3633 39.498 61.6674C37.7808 60.7078 36.0604 59.753 34.3429 58.7944C33.992 58.5927 33.5964 58.4323 33.3486 58.1043C33.5676 57.8197 33.9593 57.7841 34.2776 57.66C34.9945 57.4403 35.6528 57.0876 36.3114 56.7453C36.478 56.6354 36.6812 56.6776 36.8408 56.7758C38.3093 57.5874 39.7649 58.4226 41.2383 59.2264C41.5527 59.4013 41.8709 59.1691 42.1396 59.0247C47.7608 55.9626 53.3888 52.912 59.0089 49.849C59.2171 49.7524 59.3323 49.5393 59.3154 49.3194C59.3193 43.1073 59.3163 36.8941 59.3173 30.682C59.3412 30.4326 59.1913 30.2031 58.9573 30.1011C53.249 27.0026 47.5436 23.8993 41.8362 20.8C41.7373 20.7344 41.6202 20.6993 41.5002 20.6991C41.3803 20.699 41.263 20.7337 41.1639 20.799C35.4566 23.8993 29.7521 27.0054 24.0448 30.1038C23.8116 30.206 23.655 30.4316 23.6829 30.682C23.6838 36.8941 23.6829 43.1073 23.6829 49.3204C23.673 49.4277 23.6974 49.5353 23.7529 49.6288C23.8084 49.7223 23.8922 49.7971 23.9933 49.8433C25.5163 50.6757 27.0413 51.5023 28.5652 52.3318C29.4238 52.7773 30.4781 53.042 31.424 52.7007C32.2587 52.4121 32.8439 51.5911 32.8279 50.7368C32.8359 44.561 32.824 38.3841 32.8338 32.2093C32.8131 31.935 33.0828 31.7086 33.3594 31.7343C34.0911 31.7296 34.824 31.7248 35.5558 31.7363C35.8612 31.7296 36.0714 32.0248 36.0336 32.301C36.0306 38.516 36.0415 44.7311 36.0287 50.946C36.0306 52.6024 35.3247 54.4047 33.7351 55.2151C31.7769 56.1928 29.3566 55.9856 27.4219 55.048C25.7472 54.2423 24.1489 53.2914 22.5039 52.4283C21.3607 51.858 20.5703 50.6661 20.5783 49.4171V30.5854C20.5663 29.3603 21.318 28.18 22.4324 27.6017C28.1597 24.4864 33.8858 21.3687 39.6121 18.252Z" fill="#8CC84B"/>
<path d="M44.6075 31.2967C47.1054 31.1417 49.7796 31.2048 52.0273 32.3908C53.7676 33.2998 54.7325 35.2074 54.7632 37.0708C54.7146 37.3223 54.442 37.461 54.193 37.4437C53.4682 37.4427 52.7433 37.4531 52.0186 37.439C51.7112 37.4503 51.5326 37.1771 51.4939 36.9151C51.2856 36.0236 50.7811 35.1404 49.9105 34.7103C48.5738 34.0653 47.024 34.0977 45.5665 34.1111C44.5025 34.1657 43.3583 34.2544 42.4568 34.8576C41.7648 35.3144 41.5546 36.2366 41.8016 36.9793C42.0345 37.5126 42.6732 37.6846 43.1957 37.8433C46.206 38.602 49.3959 38.5266 52.3488 39.5253C53.5713 39.9323 54.7672 40.7238 55.1856 41.9576C55.733 43.611 55.493 45.5874 54.2725 46.9148C53.2827 48.0071 51.8412 48.6017 50.4033 48.9247C48.4906 49.3357 46.5056 49.3461 44.5631 49.1637C42.7365 48.963 40.8358 48.5004 39.4257 47.3008C38.22 46.2918 37.6311 44.7196 37.6895 43.202C37.7036 42.9457 37.9683 42.767 38.2229 42.788C38.9527 42.7824 39.6825 42.7804 40.4125 42.789C40.7039 42.7688 40.92 43.0117 40.9349 43.2766C41.0697 44.1261 41.4009 45.0177 42.1694 45.5214C43.6528 46.4437 45.5139 46.3806 47.2124 46.4064C48.6194 46.3463 50.1989 46.328 51.3473 45.4317C51.9531 44.9204 52.1325 44.065 51.9689 43.3291C51.7915 42.7078 51.1171 42.4183 50.5382 42.229C47.5665 41.3228 44.3409 41.6517 41.398 40.6271C40.2032 40.2201 39.0479 39.4507 38.5889 38.2676C37.9484 36.5931 38.2419 34.5221 39.5903 33.2396C40.9052 31.9637 42.803 31.4726 44.6075 31.2967Z" fill="#8CC84B"/>
</svg>
