<svg width="51" height="51" viewBox="0 0 51 51" fill="none" xmlns="http://www.w3.org/2000/svg">
<path d="M51 25.4999C51 39.5832 39.5832 51 25.5 51C22.8656 51 20.3245 50.6005 17.934 49.8588C18.9827 48.155 20.5114 45.4166 21.0726 43.2133L22.6676 37.1479C23.4862 38.743 25.9208 40.0862 28.5022 40.0862C36.1837 40.0862 41.7244 33.0134 41.7244 24.2195C41.7244 15.7825 34.8405 9.4862 26.0047 9.4862C14.9862 9.4862 9.15161 16.8739 9.15161 24.9121C9.15161 28.6689 11.1454 33.3072 14.3356 34.7973C14.8183 35.0282 15.0911 34.9232 15.196 34.4615C15.2308 34.3136 15.3269 33.9278 15.4409 33.4699C15.6021 32.823 15.799 32.0322 15.9096 31.5652C15.9726 31.3133 15.9516 31.0825 15.7417 30.8307C14.6924 29.5504 13.8528 27.1998 13.8528 25.0171C13.8528 19.3923 18.1133 13.9566 25.3751 13.9566C31.6504 13.9566 36.0367 18.2171 36.0367 24.3245C36.0367 31.2085 32.5528 35.9936 28.0195 35.9936C25.522 35.9936 23.6331 33.9159 24.2417 31.3763C24.5032 30.293 24.8472 29.1804 25.1817 28.0982C25.787 26.1404 26.3615 24.282 26.3615 22.8763C26.3615 20.9245 25.3121 19.2874 23.1294 19.2874C20.5689 19.2874 18.5121 21.9319 18.5121 25.4788C18.5121 27.7245 19.2676 29.2566 19.2676 29.2566C19.2676 29.2566 16.7492 39.9393 16.2874 41.9331C15.7842 44.1347 15.9722 47.2371 16.2028 49.2521C6.71732 45.5363 0 36.3026 0 25.4999C0 11.4167 11.4168 0 25.5 0C39.5832 0 51 11.4167 51 25.4999Z" fill="white" fill-opacity="0.8"/>
</svg>
