<svg width="85" height="80" viewBox="0 0 85 80" fill="none" xmlns="http://www.w3.org/2000/svg">
<path d="M42.3631 43.9183C44.6347 43.9183 46.4761 42.164 46.4761 40C46.4761 37.836 44.6347 36.0817 42.3631 36.0817C40.0915 36.0817 38.25 37.836 38.25 40C38.25 42.164 40.0915 43.9183 42.3631 43.9183Z" fill="#61DAFB"/>
<path fill-rule="evenodd" clip-rule="evenodd" d="M23.0236 37.9383C22.0908 38.7404 21.7842 39.4398 21.7842 40C21.7842 40.5603 22.0908 41.2596 23.0236 42.0617C23.9556 42.8633 25.3887 43.6506 27.2865 44.341C31.0719 45.7178 36.4018 46.5993 42.363 46.5993C48.3242 46.5993 53.654 45.7178 57.4395 44.341C59.3374 43.6506 60.7703 42.8633 61.7023 42.0617C62.6351 41.2596 62.9417 40.5603 62.9417 40C62.9417 39.4398 62.6351 38.7404 61.7023 37.9383C60.7703 37.1367 59.3374 36.3494 57.4395 35.659C53.654 34.2821 48.3242 33.4008 42.363 33.4008C36.4018 33.4008 31.0719 34.2821 27.2865 35.659C25.3887 36.3494 23.9556 37.1367 23.0236 37.9383ZM26.2278 32.988C30.4302 31.4594 36.1352 30.5437 42.363 30.5437C48.5907 30.5437 54.2957 31.4594 58.4981 32.988C60.594 33.7503 62.3932 34.6928 63.6947 35.8121C64.9955 36.9308 65.9241 38.3434 65.9241 40C65.9241 41.6566 64.9955 43.0691 63.6947 44.1878C62.3932 45.3071 60.594 46.2497 58.4981 47.012C54.2957 48.5406 48.5907 49.4564 42.363 49.4564C36.1352 49.4564 30.4302 48.5406 26.2278 47.012C24.1319 46.2497 22.3327 45.3071 21.0313 44.1878C19.7303 43.0691 18.8018 41.6566 18.8018 40C18.8018 38.3434 19.7303 36.9308 21.0313 35.8121C22.3327 34.6928 24.1319 33.7503 26.2278 32.988Z" fill="#61DAFB"/>
<path fill-rule="evenodd" clip-rule="evenodd" d="M34.5789 23.0165C33.3849 22.6485 32.5917 22.7435 32.076 23.0271C31.5605 23.3107 31.0776 23.9175 30.8152 25.0867C30.5526 26.256 30.5533 27.8307 30.8745 29.7404C31.5152 33.5498 33.3782 38.386 36.3578 43.3026C39.3374 48.2193 42.8023 52.1743 45.9449 54.6074C47.5205 55.8273 48.9517 56.6153 50.1457 56.9833C51.3397 57.3513 52.1329 57.2564 52.6486 56.9728C53.1641 56.6893 53.6469 56.0823 53.9094 54.9133C54.172 53.744 54.1713 52.1693 53.85 50.2594C53.2094 46.4501 51.3464 41.614 48.3668 36.6974C45.3872 31.7807 41.9223 27.8257 38.7797 25.3925C37.2042 24.1727 35.7729 23.3847 34.5789 23.0165ZM40.6597 23.1804C44.1521 25.8845 47.8385 30.1353 50.9533 35.2748C54.0681 40.4143 56.089 45.581 56.8009 49.8144C57.1561 51.9261 57.1987 53.8828 56.8319 55.5168C56.4651 57.1508 55.6456 58.619 54.146 59.4437C52.6463 60.2686 50.9022 60.2106 49.2332 59.6963C47.5644 59.1818 45.807 58.1683 44.0649 56.8196C40.5724 54.1153 36.8861 49.8647 33.7713 44.7251C30.6565 39.5857 28.6356 34.419 27.9237 30.1855C27.5685 28.0738 27.5258 26.1171 27.8927 24.4831C28.2595 22.849 29.079 21.381 30.5785 20.5561C32.0783 19.7314 33.8224 19.7894 35.4914 20.3037C37.1602 20.818 38.9176 21.8317 40.6597 23.1804Z" fill="#61DAFB"/>
<path fill-rule="evenodd" clip-rule="evenodd" d="M53.9094 25.0867C53.6469 23.9176 53.1641 23.3107 52.6486 23.0272C52.1329 22.7436 51.3397 22.6486 50.1457 23.0166C48.9517 23.3847 47.5205 24.1727 45.9449 25.3926C42.8023 27.8257 39.3374 31.7807 36.3578 36.6974C33.3782 41.614 31.5152 46.4502 30.8745 50.2594C30.5533 52.1693 30.5526 53.744 30.8152 54.9133C31.0776 56.0823 31.5605 56.6893 32.076 56.9729C32.5917 57.2564 33.3849 57.3513 34.5789 56.9833C35.7729 56.6153 37.2041 55.8273 38.7797 54.6074C41.9223 52.1743 45.3872 48.2193 48.3668 43.3026C51.3464 38.386 53.2094 33.5499 53.85 29.7404C54.1713 27.8307 54.172 26.256 53.9094 25.0867ZM56.8009 30.1856C56.089 34.419 54.0681 39.5857 50.9533 44.7252C47.8385 49.8647 44.1521 54.1153 40.6597 56.8196C38.9176 58.1683 37.1602 59.1819 35.4914 59.6963C33.8224 60.2106 32.0783 60.2686 30.5785 59.4437C29.079 58.619 28.2595 57.1509 27.8927 55.5169C27.5258 53.8829 27.5685 51.9262 27.9237 49.8144C28.6356 45.581 30.6565 40.4143 33.7713 35.2749C36.8861 30.1353 40.5724 25.8846 44.0649 23.1804C45.807 21.8317 47.5644 20.818 49.2332 20.3037C50.9022 19.7894 52.6463 19.7314 54.146 20.5563C55.6456 21.381 56.4651 22.849 56.8319 24.4832C57.1987 26.1172 57.1561 28.0739 56.8009 30.1856Z" fill="#61DAFB"/>
</svg>
