<svg width="84" height="80" viewBox="0 0 84 80" fill="none" xmlns="http://www.w3.org/2000/svg">
<path d="M58.8507 42.4951C57.2226 42.5033 55.8076 42.8767 54.6228 43.4287C54.1881 42.6088 53.7534 41.8781 53.6766 41.3424C53.5914 40.7173 53.4891 40.3357 53.5914 39.589C53.6937 38.8421 54.154 37.7786 54.1455 37.6974C54.1369 37.6163 54.0432 37.2347 53.1055 37.2266C52.1679 37.2184 51.3582 37.3971 51.2644 37.6326C51.1707 37.868 50.9916 38.4037 50.8723 38.9557C50.7103 39.7676 48.997 42.6656 48.0168 44.1837C47.7015 43.5911 47.4286 43.0716 47.3689 42.6576C47.2837 42.0324 47.1814 41.6508 47.2837 40.904C47.386 40.1571 47.8464 39.0937 47.8378 39.0126C47.8293 38.9314 47.7355 38.5498 46.7979 38.5417C45.8602 38.5336 45.0505 38.7121 44.9568 38.9476C44.863 39.183 44.7607 39.735 44.5647 40.2708C44.3686 40.8066 42.0927 45.6448 41.4961 46.8951C41.1892 47.5364 40.9249 48.0478 40.7374 48.3968C40.7374 48.3968 40.7289 48.4213 40.7034 48.4618C40.5414 48.7623 40.4476 48.9246 40.4476 48.9246C40.4476 48.9246 40.4476 48.9246 40.4476 48.9327C40.3198 49.1518 40.1833 49.3548 40.1152 49.3548C40.0641 49.3548 39.9703 48.7703 40.1322 47.9747C40.4731 46.2944 41.283 43.6804 41.2744 43.5911C41.2744 43.5424 41.4279 43.0877 40.746 42.8523C40.081 42.617 39.8424 43.0066 39.7828 43.0066C39.7231 43.0066 39.6805 43.1446 39.6805 43.1446C39.6805 43.1446 40.4221 40.2058 38.2656 40.2058C36.9187 40.2058 35.0605 41.6103 34.14 42.8767C33.5604 43.177 32.3244 43.8184 31.0032 44.5084C30.5002 44.7763 29.9803 45.0441 29.4945 45.2958C29.4604 45.2634 29.4262 45.2228 29.3922 45.1903C26.7838 42.5357 21.9594 40.6606 22.164 37.0967C22.2406 35.7978 22.7095 32.3883 31.4293 28.2481C38.6065 24.8791 44.3175 25.8127 45.3063 27.8828C46.7212 30.8377 42.2461 36.3256 34.8304 37.1211C32.0005 37.4214 30.5173 36.3823 30.1423 35.9927C29.7502 35.5867 29.6905 35.5624 29.5456 35.6436C29.307 35.7654 29.4604 36.1307 29.5456 36.3417C29.7672 36.8937 30.6793 37.8678 32.2221 38.3468C33.5859 38.769 36.9018 39.0044 40.9164 37.527C45.4086 35.8708 48.9204 31.268 47.889 27.412C46.8576 23.4991 40.0384 22.2084 33.5859 24.3921C29.7502 25.691 25.5906 27.7367 22.5987 30.3994C19.0443 33.5654 18.4816 36.3174 18.7119 37.4701C19.5387 41.5616 25.4628 44.2243 27.8323 46.197C27.7129 46.2618 27.6022 46.3187 27.5085 46.3674C26.3236 46.9276 21.8059 49.1763 20.6808 51.5548C19.4022 54.25 20.8854 56.182 21.8656 56.4418C24.9087 57.2454 28.0369 55.8004 29.7162 53.4138C31.3953 51.0271 31.1907 47.926 30.415 46.5054C30.4065 46.4891 30.3981 46.473 30.381 46.4567C30.6879 46.2863 31.0032 46.1077 31.3101 45.9371C31.9153 45.5961 32.5119 45.2796 33.0234 45.0198C32.7336 45.7748 32.5204 46.6758 32.4181 47.9747C32.2903 49.501 32.9466 51.4817 33.8076 52.261C34.1911 52.602 34.6429 52.6101 34.9327 52.6101C35.9385 52.6101 36.3903 51.8146 36.8932 50.8728C37.5069 49.7201 38.061 48.3807 38.061 48.3807C38.061 48.3807 37.3705 52.0013 39.2458 52.0013C39.9277 52.0013 40.6182 51.157 40.9249 50.7267C40.9249 50.7348 40.9249 50.7348 40.9249 50.7348C40.9249 50.7348 40.942 50.7106 40.9761 50.6537C41.0443 50.5481 41.0869 50.4833 41.0869 50.4833C41.0869 50.4833 41.0869 50.4751 41.0869 50.467C41.3596 50.0124 41.9734 48.9814 42.8854 47.2686C44.0617 45.0604 45.1954 42.3003 45.1954 42.3003C45.1954 42.3003 45.2977 42.9741 45.6472 44.0944C45.8517 44.752 46.278 45.4744 46.6189 46.1726C46.3461 46.5378 46.1757 46.7408 46.1757 46.7408C46.1757 46.7408 46.1757 46.7408 46.1842 46.749C45.9625 47.025 45.7239 47.3253 45.4596 47.6176C44.5305 48.6728 43.4224 49.8824 43.269 50.2316C43.09 50.6456 43.1326 50.946 43.4736 51.1894C43.7208 51.3681 44.164 51.3924 44.6158 51.3681C45.4512 51.3113 46.0393 51.1164 46.3291 50.9947C46.7808 50.8404 47.3094 50.605 47.8038 50.2558C48.7158 49.6146 49.2699 48.6973 49.2187 47.4877C49.1931 46.822 48.963 46.1563 48.6817 45.5313C48.7669 45.4176 48.8436 45.304 48.9289 45.1903C50.3694 43.1851 51.486 40.9853 51.486 40.9853C51.486 40.9853 51.5883 41.659 51.9378 42.7793C52.1082 43.3476 52.4577 43.9646 52.7646 44.5653C51.4093 45.6124 50.574 46.8301 50.2756 47.6257C49.7386 49.1031 50.1562 49.7688 50.949 49.9231C51.307 49.9961 51.8184 49.8337 52.1935 49.6796C52.6708 49.5334 53.2333 49.2817 53.7703 48.9083C54.6825 48.267 55.5604 47.374 55.5093 46.1644C55.4836 45.6124 55.3303 45.0686 55.1172 44.5408C56.2678 44.0863 57.751 43.8346 59.6433 44.0457C63.7006 44.5003 64.5019 46.9113 64.3485 47.926C64.195 48.9408 63.3427 49.4928 63.0613 49.6633C62.7801 49.8337 62.6863 49.8906 62.712 50.0124C62.746 50.191 62.8824 50.1828 63.121 50.1504C63.4534 50.0936 65.2521 49.3304 65.3287 47.4633C65.4565 45.0767 63.0699 42.4708 58.8507 42.4951ZM27.5511 52.5451C26.2042 53.9414 24.3291 54.4691 23.5192 54.0227C22.6498 53.5437 22.9908 51.4817 24.6444 50.0043C25.6503 49.1031 26.9458 48.267 27.8068 47.7556C28.0029 47.642 28.2927 47.4796 28.642 47.2766C28.7017 47.2441 28.7359 47.2278 28.7359 47.2278C28.804 47.1873 28.8723 47.1467 28.9404 47.1061C29.5456 49.2168 28.966 51.0758 27.5511 52.5451ZM37.3534 46.197C36.8847 47.2847 35.9044 50.0691 35.3077 49.915C34.7964 49.7851 34.4809 47.6744 35.2054 45.5881C35.572 44.5408 36.3477 43.2907 36.7995 42.8036C37.5325 42.0243 38.3422 41.7646 38.5383 42.0811C38.7855 42.4951 37.6432 45.515 37.3534 46.197ZM45.4426 49.8824C45.2466 49.9798 45.0591 50.0448 44.9737 49.9961C44.9142 49.9637 45.0591 49.8337 45.0591 49.8337C45.0591 49.8337 46.0734 48.7947 46.474 48.3238C46.7041 48.0478 46.9768 47.7231 47.2668 47.3578C47.2668 47.3903 47.2668 47.4308 47.2668 47.4633C47.2668 48.7054 46.0051 49.5416 45.4426 49.8824ZM51.682 48.5268C51.5371 48.4294 51.5628 48.1047 52.0486 47.0898C52.2361 46.6921 52.6794 46.0264 53.4379 45.3851C53.5233 45.6448 53.5828 45.8966 53.5744 46.132C53.5659 47.6987 52.3896 48.2833 51.682 48.5268Z" fill="#CD6799"/>
</svg>
