<svg width="60" height="45" viewBox="0 0 60 45" fill="none" xmlns="http://www.w3.org/2000/svg">
<path d="M60 5.33015C57.743 6.23882 55.3559 6.84275 52.9124 7.12335C55.4876 5.71305 57.4129 3.47983 58.3234 0.846874C55.9129 2.16648 53.2755 3.09588 50.5255 3.59487C48.839 1.93163 46.6493 0.775207 44.2411 0.275964C41.833 -0.223279 39.3179 -0.0422474 37.0227 0.795519C34.7275 1.63329 32.7585 3.08903 31.3717 4.97349C29.9848 6.85794 29.2443 9.08393 29.2464 11.362C29.2369 12.2313 29.3326 13.0989 29.5315 13.9486C24.638 13.7272 19.8503 12.555 15.4813 10.5086C11.1123 8.46227 7.26034 5.58784 4.17736 2.07327C2.59453 4.57082 2.10403 7.53178 2.80596 10.3518C3.5079 13.1718 5.34935 15.6382 7.95447 17.2477C6.00821 17.1992 4.10311 16.7195 2.39968 15.8492V15.973C2.40288 18.5948 3.3846 21.1356 5.17957 23.1676C6.97455 25.1996 9.47318 26.5988 12.2549 27.1297C11.2025 27.3857 10.118 27.5115 9.02973 27.5036C8.24829 27.5164 7.46765 27.4513 6.70132 27.3096C7.49631 29.5629 9.02847 31.5334 11.0869 32.9497C13.1453 34.3661 15.6287 35.1587 18.1953 35.2185C13.8413 38.3613 8.47162 40.0663 2.94432 40.0611C1.96027 40.0671 0.976815 40.0149 0 39.9048C5.62451 43.2501 12.1786 45.0198 18.8697 44.9998C41.5043 44.9998 53.8798 27.6937 53.8798 12.6924C53.8798 12.1903 53.861 11.7062 53.8348 11.2248C56.261 9.62221 58.3502 7.62464 60 5.33015Z" fill="white" fill-opacity="0.8"/>
</svg>
