<svg width="221" height="45" viewBox="0 0 221 45" fill="none" xmlns="http://www.w3.org/2000/svg">
<path d="M50.0306 21.9919L50.5185 22.2322C50.5185 22.5211 50.583 22.778 50.7134 23.0022C50.9407 23.3868 51.388 23.7644 52.0551 24.1327C52.7211 24.5017 53.4856 24.8302 54.3477 25.119C55.209 25.4074 56.1112 25.6404 57.0551 25.8165C57.9975 25.9932 58.8429 26.0809 59.5919 26.0809C60.144 26.0809 60.86 26.0413 61.7377 25.9607C62.616 25.8812 63.4773 25.7125 64.3233 25.4555C65.1687 25.1992 65.9 24.8468 66.5185 24.3971C67.1358 23.9485 67.445 23.3553 67.445 22.6172C67.445 21.8798 67.1602 21.3347 66.5917 20.9815C66.022 20.6287 65.2742 20.3724 64.3477 20.2116C63.4212 20.0514 62.3636 19.9471 61.1772 19.8991C59.9896 19.851 58.7783 19.7785 57.5431 19.6824C56.3066 19.5862 55.0954 19.426 53.9086 19.2012C52.7211 18.9775 51.6648 18.5999 50.7378 18.0707C49.8109 17.5415 49.0625 16.82 48.494 15.9058C47.9244 14.9917 47.6402 13.7972 47.6402 12.3216C47.6402 11.3279 47.8757 10.349 48.3477 9.38712C48.8187 8.42484 49.5428 7.57536 50.5185 6.83725C51.4937 6.09982 52.7293 5.49851 54.2258 5.03293C55.7212 4.56841 57.4773 4.33545 59.4937 4.33545C61.2174 4.33545 62.7131 4.46413 63.9817 4.72042C65.2498 4.97743 66.3477 5.24963 67.2742 5.53811C68.2014 5.82691 68.9815 6.09982 69.6158 6.35611C70.2502 6.61313 70.7784 6.74108 71.2011 6.74108C71.6567 6.74108 71.9818 6.64456 72.177 6.45228L72.762 6.83725L69.3963 12.8508L68.9089 12.6585C68.8431 12.2095 68.7137 11.8405 68.5185 11.552C68.2575 11.167 67.8274 10.7905 67.226 10.4215C66.6235 10.0531 65.9165 9.72364 65.104 9.43518C64.2904 9.14638 63.4121 8.91409 62.4697 8.73736C61.5261 8.56164 60.5831 8.4729 59.6407 8.4729C58.9246 8.4729 58.1842 8.52913 57.4211 8.64118C56.6563 8.75398 55.9649 8.92226 55.3478 9.14638C54.7294 9.37118 54.2172 9.66815 53.8111 10.0365C53.4039 10.4056 53.2014 10.8627 53.2014 11.4074C53.2014 12.1773 53.4856 12.7547 54.0549 13.1396C54.6237 13.5246 55.3721 13.813 56.2987 14.0053C57.2253 14.198 58.2818 14.3264 59.4693 14.3903C60.6563 14.455 61.8677 14.5345 63.1034 14.631C64.3392 14.7272 65.5505 14.8955 66.7381 15.1362C67.9245 15.3766 68.9815 15.7616 69.9086 16.2908C70.8357 16.82 71.5835 17.5341 72.1526 18.4317C72.7211 19.3299 73.0065 20.5004 73.0065 21.9437C73.0065 23.6116 72.5588 24.9744 71.6647 26.0328C70.7699 27.0912 69.6561 27.9258 68.3233 28.5346C66.9894 29.1444 65.5505 29.553 64.0061 29.7613C62.4611 29.9695 61.0223 30.0741 59.6889 30.0741C57.8353 30.0741 56.2822 29.9695 55.0305 29.7613C53.7781 29.553 52.7379 29.2967 51.9085 28.9917C51.0794 28.6873 50.4206 28.4144 49.9328 28.1737C49.4453 27.9333 49.0219 27.8131 48.6646 27.8131C48.4366 27.8131 48.2255 27.9414 48.0305 28.1977L47.3477 27.8131L50.0306 21.9919Z" fill="#F0EBEA"/>
<path d="M50.0306 21.9919L50.5185 22.2322C50.5185 22.5211 50.583 22.778 50.7134 23.0022C50.9407 23.3868 51.388 23.7644 52.0551 24.1327C52.7211 24.5017 53.4856 24.8302 54.3477 25.119C55.209 25.4074 56.1112 25.6404 57.0551 25.8165C57.9975 25.9932 58.8429 26.0809 59.5919 26.0809C60.144 26.0809 60.86 26.0413 61.7377 25.9607C62.616 25.8812 63.4773 25.7125 64.3233 25.4555C65.1687 25.1992 65.9 24.8468 66.5185 24.3971C67.1358 23.9485 67.445 23.3553 67.445 22.6172C67.445 21.8798 67.1602 21.3347 66.5917 20.9815C66.022 20.6287 65.2742 20.3724 64.3477 20.2116C63.4212 20.0514 62.3636 19.9471 61.1772 19.8991C59.9896 19.851 58.7783 19.7785 57.5431 19.6824C56.3066 19.5862 55.0954 19.426 53.9086 19.2012C52.7211 18.9775 51.6648 18.5999 50.7378 18.0707C49.8109 17.5415 49.0625 16.82 48.494 15.9058C47.9244 14.9917 47.6402 13.7972 47.6402 12.3216C47.6402 11.3279 47.8757 10.349 48.3477 9.38712C48.8187 8.42484 49.5428 7.57536 50.5185 6.83725C51.4937 6.09982 52.7293 5.49851 54.2258 5.03293C55.7212 4.56841 57.4773 4.33545 59.4937 4.33545C61.2174 4.33545 62.7131 4.46413 63.9817 4.72042C65.2498 4.97743 66.3477 5.24963 67.2742 5.53811C68.2014 5.82691 68.9815 6.09982 69.6158 6.35611C70.2502 6.61313 70.7784 6.74108 71.2011 6.74108C71.6567 6.74108 71.9818 6.64456 72.177 6.45228L72.762 6.83725L69.3963 12.8508L68.9089 12.6585C68.8431 12.2095 68.7137 11.8405 68.5185 11.552C68.2575 11.167 67.8274 10.7905 67.226 10.4215C66.6235 10.0531 65.9165 9.72364 65.104 9.43518C64.2904 9.14638 63.4121 8.91409 62.4697 8.73736C61.5261 8.56164 60.5831 8.4729 59.6407 8.4729C58.9246 8.4729 58.1842 8.52913 57.4211 8.64118C56.6563 8.75398 55.9649 8.92226 55.3478 9.14638C54.7294 9.37118 54.2172 9.66815 53.8111 10.0365C53.4039 10.4056 53.2014 10.8627 53.2014 11.4074C53.2014 12.1773 53.4856 12.7547 54.0549 13.1396C54.6237 13.5246 55.3721 13.813 56.2987 14.0053C57.2253 14.198 58.2818 14.3264 59.4693 14.3903C60.6563 14.455 61.8677 14.5345 63.1034 14.631C64.3392 14.7272 65.5505 14.8955 66.7381 15.1362C67.9245 15.3766 68.9815 15.7616 69.9086 16.2908C70.8357 16.82 71.5835 17.5341 72.1526 18.4317C72.7211 19.3299 73.0065 20.5004 73.0065 21.9437C73.0065 23.6116 72.5588 24.9744 71.6647 26.0328C70.7699 27.0912 69.6561 27.9258 68.3233 28.5346C66.9894 29.1444 65.5505 29.553 64.0061 29.7613C62.4611 29.9695 61.0223 30.0741 59.6889 30.0741C57.8353 30.0741 56.2822 29.9695 55.0305 29.7613C53.7781 29.553 52.7379 29.2967 51.9085 28.9917C51.0794 28.6873 50.4206 28.4144 49.9328 28.1737C49.4453 27.9333 49.0219 27.8131 48.6646 27.8131C48.4366 27.8131 48.2255 27.9414 48.0305 28.1977L47.3477 27.8131L50.0306 21.9919Z" fill="black"/>
<path d="M91.1577 21.0778L87.2065 12.9951L83.7431 21.0778H91.1577ZM74.8647 29.0638C75.2551 28.9999 75.5723 28.8157 75.8162 28.5106C76.0602 28.2062 76.2469 27.9259 76.3768 27.6686L83.6456 12.0332C83.8402 11.5843 83.9945 11.2233 84.1091 10.9507C84.2226 10.6785 84.2793 10.4137 84.2793 10.1568C84.2793 9.96444 84.2385 9.84427 84.1573 9.79581C84.0756 9.74776 83.9871 9.69227 83.889 9.62753V8.76147H91.2553V9.62753C91.1577 9.69227 91.0516 9.74032 90.9381 9.77181C90.8241 9.80432 90.7673 9.93261 90.7673 10.1568C90.7673 10.3491 90.8405 10.5824 90.9869 10.8542C91.1333 11.1271 91.2876 11.44 91.4505 11.7924L99.3524 28.1497C99.5152 28.4385 99.694 28.6474 99.8892 28.7754C100.084 28.9037 100.296 28.9999 100.523 29.0638V29.9299H93.5969V29.2081C93.7592 29.2081 93.9299 29.16 94.1092 29.0638C94.2874 28.9677 94.377 28.7917 94.377 28.5346C94.377 28.3424 94.3447 28.1663 94.2794 28.0054C94.2142 27.8453 94.1336 27.6371 94.0355 27.3801L92.7186 24.6379H82.2793L80.9136 27.2358C80.7831 27.4929 80.6776 27.7251 80.5964 27.9333C80.5153 28.1423 80.4745 28.3265 80.4745 28.4866C80.4745 28.7436 80.555 28.9037 80.7184 28.9677C80.8807 29.0324 81.1088 29.0638 81.4016 29.0638V29.9299H74.8647V29.0638Z" fill="#F0EBEA"/>
<path d="M91.1577 21.0778L87.2065 12.9951L83.7431 21.0778H91.1577ZM74.8647 29.0638C75.2551 28.9999 75.5723 28.8157 75.8162 28.5106C76.0602 28.2062 76.2469 27.9259 76.3768 27.6686L83.6456 12.0332C83.8402 11.5843 83.9945 11.2233 84.1091 10.9507C84.2226 10.6785 84.2793 10.4137 84.2793 10.1568C84.2793 9.96444 84.2385 9.84427 84.1573 9.79581C84.0756 9.74776 83.9871 9.69227 83.889 9.62753V8.76147H91.2553V9.62753C91.1577 9.69227 91.0516 9.74032 90.9381 9.77181C90.8241 9.80432 90.7673 9.93261 90.7673 10.1568C90.7673 10.3491 90.8405 10.5824 90.9869 10.8542C91.1333 11.1271 91.2876 11.44 91.4505 11.7924L99.3524 28.1497C99.5152 28.4385 99.694 28.6474 99.8892 28.7754C100.084 28.9037 100.296 28.9999 100.523 29.0638V29.9299H93.5969V29.2081C93.7592 29.2081 93.9299 29.16 94.1092 29.0638C94.2874 28.9677 94.377 28.7917 94.377 28.5346C94.377 28.3424 94.3447 28.1663 94.2794 28.0054C94.2142 27.8453 94.1336 27.6371 94.0355 27.3801L92.7186 24.6379H82.2793L80.9136 27.2358C80.7831 27.4929 80.6776 27.7251 80.5964 27.9333C80.5153 28.1423 80.4745 28.3265 80.4745 28.4866C80.4745 28.7436 80.555 28.9037 80.7184 28.9677C80.8807 29.0324 81.1088 29.0638 81.4016 29.0638V29.9299H74.8647V29.0638Z" fill="black"/>
<path d="M104.169 29.0638C104.755 29.0638 105.047 28.8235 105.047 28.3424V10.3491C105.047 9.86827 104.755 9.62753 104.169 9.62753V8.76147H111.34V9.62753C111.112 9.66009 110.999 9.74032 110.999 9.86827C110.999 10.0291 111.356 10.4619 112.071 11.1671L123.779 23.3868V10.3491C123.779 9.86827 123.454 9.62753 122.803 9.62753V8.76147H128.755V9.62753C128.17 9.62753 127.877 9.86827 127.877 10.3491V28.3424C127.877 28.8235 128.17 29.0638 128.755 29.0638V29.9299H122.413V29.0638C122.64 29.0638 122.755 28.9843 122.755 28.8235C122.755 28.6955 122.6 28.4707 122.292 28.1497C121.982 27.8294 121.633 27.4604 121.243 27.0432L109.145 14.3423V28.3424C109.145 28.8235 109.486 29.0638 110.17 29.0638V29.9299H104.169V29.0638Z" fill="#F0EBEA"/>
<path d="M104.169 29.0638C104.755 29.0638 105.047 28.8235 105.047 28.3424V10.3491C105.047 9.86827 104.755 9.62753 104.169 9.62753V8.76147H111.34V9.62753C111.112 9.66009 110.999 9.74032 110.999 9.86827C110.999 10.0291 111.356 10.4619 112.071 11.1671L123.779 23.3868V10.3491C123.779 9.86827 123.454 9.62753 122.803 9.62753V8.76147H128.755V9.62753C128.17 9.62753 127.877 9.86827 127.877 10.3491V28.3424C127.877 28.8235 128.17 29.0638 128.755 29.0638V29.9299H122.413V29.0638C122.64 29.0638 122.755 28.9843 122.755 28.8235C122.755 28.6955 122.6 28.4707 122.292 28.1497C121.982 27.8294 121.633 27.4604 121.243 27.0432L109.145 14.3423V28.3424C109.145 28.8235 109.486 29.0638 110.17 29.0638V29.9299H104.169V29.0638Z" fill="black"/>
<path d="M133.12 29.0638C133.64 29.0638 133.998 29.0083 134.193 28.8956C134.388 28.7836 134.486 28.5994 134.486 28.3424V10.3491C134.486 10.0928 134.388 9.90861 134.193 9.79581C133.998 9.6841 133.64 9.62753 133.12 9.62753V8.76147H140.534V9.62753C139.623 9.62753 139.168 9.86827 139.168 10.3491V28.3424C139.168 28.8235 139.623 29.0638 140.534 29.0638V29.9299H133.12V29.0638Z" fill="#F0EBEA"/>
<path d="M133.12 29.0638C133.64 29.0638 133.998 29.0083 134.193 28.8956C134.388 28.7836 134.486 28.5994 134.486 28.3424V10.3491C134.486 10.0928 134.388 9.90861 134.193 9.79581C133.998 9.6841 133.64 9.62753 133.12 9.62753V8.76147H140.534V9.62753C139.623 9.62753 139.168 9.86827 139.168 10.3491V28.3424C139.168 28.8235 139.623 29.0638 140.534 29.0638V29.9299H133.12V29.0638Z" fill="black"/>
<path d="M151.061 28.3424C151.061 28.8235 151.37 29.0638 151.989 29.0638V29.9299H145.598V29.0638C146.118 29.0638 146.378 28.8235 146.378 28.3424V10.3491C146.378 9.86827 146.118 9.62753 145.598 9.62753V8.76147H151.989V9.62753C151.37 9.62753 151.061 9.86827 151.061 10.3491V18.191C152.167 17.2934 153.305 16.387 154.476 15.4728C155.647 14.5586 156.704 13.7169 157.647 12.947C158.59 12.1774 159.37 11.528 159.989 10.9988C160.605 10.4696 160.915 10.1408 160.915 10.0126C160.915 9.85238 160.826 9.7237 160.647 9.62753C160.468 9.53141 160.297 9.4833 160.134 9.4833V8.76147H168.183V9.62753C167.793 9.75621 167.208 10.1253 166.427 10.734L158.281 17.2291L165.988 26.6586C166.379 27.1393 166.801 27.629 167.256 28.1257C167.712 28.6234 168.166 28.9362 168.623 29.0638V29.9299H161.403V29.0638C161.761 29.0638 161.939 28.9677 161.939 28.7754C161.939 28.6474 161.866 28.4707 161.72 28.2462C161.574 28.0221 161.289 27.6686 160.866 27.1878L154.866 19.9712L151.061 22.9541V28.3424Z" fill="#F0EBEA"/>
<path d="M151.061 28.3424C151.061 28.8235 151.37 29.0638 151.989 29.0638V29.9299H145.598V29.0638C146.118 29.0638 146.378 28.8235 146.378 28.3424V10.3491C146.378 9.86827 146.118 9.62753 145.598 9.62753V8.76147H151.989V9.62753C151.37 9.62753 151.061 9.86827 151.061 10.3491V18.191C152.167 17.2934 153.305 16.387 154.476 15.4728C155.647 14.5586 156.704 13.7169 157.647 12.947C158.59 12.1774 159.37 11.528 159.989 10.9988C160.605 10.4696 160.915 10.1408 160.915 10.0126C160.915 9.85238 160.826 9.7237 160.647 9.62753C160.468 9.53141 160.297 9.4833 160.134 9.4833V8.76147H168.183V9.62753C167.793 9.75621 167.208 10.1253 166.427 10.734L158.281 17.2291L165.988 26.6586C166.379 27.1393 166.801 27.629 167.256 28.1257C167.712 28.6234 168.166 28.9362 168.623 29.0638V29.9299H161.403V29.0638C161.761 29.0638 161.939 28.9677 161.939 28.7754C161.939 28.6474 161.866 28.4707 161.72 28.2462C161.574 28.0221 161.289 27.6686 160.866 27.1878L154.866 19.9712L151.061 22.9541V28.3424Z" fill="black"/>
<path d="M186.134 21.0778L182.184 12.9951L178.72 21.0778H186.134ZM169.841 29.0638C170.232 28.9999 170.549 28.8157 170.793 28.5106C171.037 28.2062 171.223 27.9259 171.354 27.6686L178.622 12.0332C178.817 11.5843 178.972 11.2233 179.086 10.9507C179.199 10.6785 179.256 10.4137 179.256 10.1568C179.256 9.96444 179.215 9.84427 179.134 9.79581C179.053 9.74776 178.964 9.69227 178.866 9.62753V8.76147H186.232V9.62753C186.134 9.69227 186.028 9.74032 185.915 9.77181C185.801 9.80432 185.744 9.93261 185.744 10.1568C185.744 10.3491 185.817 10.5824 185.964 10.8542C186.11 11.1271 186.264 11.44 186.427 11.7924L194.33 28.1497C194.492 28.4385 194.671 28.6474 194.866 28.7754C195.061 28.9037 195.273 28.9999 195.5 29.0638V29.9299H188.573V29.2081C188.736 29.2081 188.906 29.16 189.086 29.0638C189.264 28.9677 189.354 28.7917 189.354 28.5346C189.354 28.3424 189.321 28.1663 189.257 28.0054C189.191 27.8453 189.11 27.6371 189.013 27.3801L187.696 24.6379H177.256L175.891 27.2358C175.76 27.4929 175.654 27.7251 175.574 27.9333C175.492 28.1423 175.452 28.3265 175.452 28.4866C175.452 28.7436 175.532 28.9037 175.695 28.9677C175.858 29.0324 176.085 29.0638 176.379 29.0638V29.9299H169.841V29.0638Z" fill="#F0EBEA"/>
<path d="M186.134 21.0778L182.184 12.9951L178.72 21.0778H186.134ZM169.841 29.0638C170.232 28.9999 170.549 28.8157 170.793 28.5106C171.037 28.2062 171.223 27.9259 171.354 27.6686L178.622 12.0332C178.817 11.5843 178.972 11.2233 179.086 10.9507C179.199 10.6785 179.256 10.4137 179.256 10.1568C179.256 9.96444 179.215 9.84427 179.134 9.79581C179.053 9.74776 178.964 9.69227 178.866 9.62753V8.76147H186.232V9.62753C186.134 9.69227 186.028 9.74032 185.915 9.77181C185.801 9.80432 185.744 9.93261 185.744 10.1568C185.744 10.3491 185.817 10.5824 185.964 10.8542C186.11 11.1271 186.264 11.44 186.427 11.7924L194.33 28.1497C194.492 28.4385 194.671 28.6474 194.866 28.7754C195.061 28.9037 195.273 28.9999 195.5 29.0638V29.9299H188.573V29.2081C188.736 29.2081 188.906 29.16 189.086 29.0638C189.264 28.9677 189.354 28.7917 189.354 28.5346C189.354 28.3424 189.321 28.1663 189.257 28.0054C189.191 27.8453 189.11 27.6371 189.013 27.3801L187.696 24.6379H177.256L175.891 27.2358C175.76 27.4929 175.654 27.7251 175.574 27.9333C175.492 28.1423 175.452 28.3265 175.452 28.4866C175.452 28.7436 175.532 28.9037 175.695 28.9677C175.858 29.0324 176.085 29.0638 176.379 29.0638V29.9299H169.841V29.0638Z" fill="black"/>
<path d="M191.445 14.1727C191.767 13.9808 192.059 13.7552 192.322 13.4957C192.584 13.237 192.801 12.957 192.97 12.6562C193.139 12.3554 193.207 12.0545 193.174 11.7537C193.139 11.637 193.046 11.5698 192.894 11.5529C192.742 11.5366 192.598 11.5281 192.462 11.5281C192.038 11.5281 191.67 11.3902 191.356 11.1142C191.042 10.8384 190.886 10.4499 190.886 9.94864C190.886 9.46398 191.06 9.04616 191.407 8.69512C191.754 8.34442 192.148 8.1687 192.589 8.1687C193.266 8.1687 193.779 8.4112 194.127 8.89592C194.474 9.38057 194.647 9.97371 194.647 10.6758C194.647 11.2273 194.533 11.7579 194.305 12.2673C194.076 12.7774 193.775 13.2412 193.403 13.6588C193.029 14.0766 192.598 14.4357 192.106 14.7365C191.899 14.604 191.567 14.4025 191.445 14.1727Z" fill="#F0EBEA"/>
<path d="M191.445 14.1727C191.767 13.9808 192.059 13.7552 192.322 13.4957C192.584 13.237 192.801 12.957 192.97 12.6562C193.139 12.3554 193.207 12.0545 193.174 11.7537C193.139 11.637 193.046 11.5698 192.894 11.5529C192.742 11.5366 192.598 11.5281 192.462 11.5281C192.038 11.5281 191.67 11.3902 191.356 11.1142C191.042 10.8384 190.886 10.4499 190.886 9.94864C190.886 9.46398 191.06 9.04616 191.407 8.69512C191.754 8.34442 192.148 8.1687 192.589 8.1687C193.266 8.1687 193.779 8.4112 194.127 8.89592C194.474 9.38057 194.647 9.97371 194.647 10.6758C194.647 11.2273 194.533 11.7579 194.305 12.2673C194.076 12.7774 193.775 13.2412 193.403 13.6588C193.029 14.0766 192.598 14.4357 192.106 14.7365C191.899 14.604 191.567 14.4025 191.445 14.1727Z" fill="black"/>
<path d="M202.055 22.8423C202.055 22.9709 202.047 23.1071 202.03 23.2513C202.014 23.3955 202.006 23.5483 202.006 23.7084C202.006 24.1895 202.315 24.6307 202.933 25.0312C203.55 25.4328 204.291 25.7697 205.153 26.0416C206.014 26.3145 206.876 26.5312 207.738 26.6913C208.6 26.8521 209.275 26.9317 209.762 26.9317C210.217 26.9317 210.778 26.9002 211.446 26.8356C212.112 26.7716 212.77 26.6354 213.421 26.4265C214.071 26.2183 214.623 25.9298 215.08 25.5604C215.535 25.1921 215.762 24.7028 215.762 24.0933C215.762 23.3881 215.364 22.8748 214.567 22.5538C213.77 22.2335 212.77 21.9847 211.568 21.8079C210.364 21.6322 209.063 21.4555 207.665 21.2787C206.266 21.103 204.965 20.8142 203.762 20.413C202.559 20.0121 201.559 19.4348 200.762 18.6808C199.965 17.9278 199.567 16.8609 199.567 15.4815C199.567 13.4294 200.428 11.7937 202.152 10.5744C203.876 9.35586 206.299 8.74609 209.421 8.74609C210.949 8.74609 212.257 8.86661 213.347 9.10701C214.437 9.34775 215.355 9.6122 216.104 9.901C216.852 10.1895 217.462 10.4543 217.933 10.6947C218.404 10.9354 218.754 11.0556 218.982 11.0556C219.242 11.0556 219.437 11.0156 219.567 10.9354C219.697 10.8555 219.86 10.7668 220.055 10.6706L220.592 11.1998L218.153 15.7222L217.274 15.4334C217.242 15.2411 217.209 15.0485 217.177 14.8561C217.144 14.6638 216.998 14.4712 216.738 14.2789C216.087 13.7337 215.08 13.2685 213.713 12.8836C212.348 12.4989 210.819 12.3063 209.128 12.3063C208.477 12.3063 207.86 12.3469 207.275 12.4265C206.689 12.507 206.168 12.6432 205.714 12.8355C205.258 13.0281 204.9 13.2766 204.64 13.5814C204.38 13.8865 204.25 14.263 204.25 14.7119C204.25 15.4179 204.648 15.9227 205.445 16.2274C206.242 16.5325 207.242 16.7729 208.445 16.9489C209.648 17.1257 210.949 17.3021 212.348 17.4781C213.746 17.6549 215.047 17.9518 216.25 18.3683C217.453 18.7854 218.453 19.3948 219.25 20.1963C220.046 20.9984 220.445 22.1048 220.445 23.5161C220.445 24.9276 220.096 26.0822 219.397 26.9798C218.697 27.878 217.827 28.584 216.787 29.0966C215.746 29.6102 214.599 29.9467 213.347 30.1069C212.096 30.267 210.916 30.3476 209.811 30.3476C208.705 30.3476 207.608 30.243 206.518 30.0348C205.428 29.8266 204.437 29.5862 203.543 29.3133C202.648 29.0411 201.892 28.7841 201.274 28.5433C200.656 28.3029 200.282 28.1824 200.152 28.1824C199.925 28.1824 199.73 28.2789 199.567 28.4712L198.884 27.9901L201.128 22.6019L202.055 22.8423Z" fill="#F0EBEA"/>
<path d="M202.055 22.8423C202.055 22.9709 202.047 23.1071 202.03 23.2513C202.014 23.3955 202.006 23.5483 202.006 23.7084C202.006 24.1895 202.315 24.6307 202.933 25.0312C203.55 25.4328 204.291 25.7697 205.153 26.0416C206.014 26.3145 206.876 26.5312 207.738 26.6913C208.6 26.8521 209.275 26.9317 209.762 26.9317C210.217 26.9317 210.778 26.9002 211.446 26.8356C212.112 26.7716 212.77 26.6354 213.421 26.4265C214.071 26.2183 214.623 25.9298 215.08 25.5604C215.535 25.1921 215.762 24.7028 215.762 24.0933C215.762 23.3881 215.364 22.8748 214.567 22.5538C213.77 22.2335 212.77 21.9847 211.568 21.8079C210.364 21.6322 209.063 21.4555 207.665 21.2787C206.266 21.103 204.965 20.8142 203.762 20.413C202.559 20.0121 201.559 19.4348 200.762 18.6808C199.965 17.9278 199.567 16.8609 199.567 15.4815C199.567 13.4294 200.428 11.7937 202.152 10.5744C203.876 9.35586 206.299 8.74609 209.421 8.74609C210.949 8.74609 212.257 8.86661 213.347 9.10701C214.437 9.34775 215.355 9.6122 216.104 9.901C216.852 10.1895 217.462 10.4543 217.933 10.6947C218.404 10.9354 218.754 11.0556 218.982 11.0556C219.242 11.0556 219.437 11.0156 219.567 10.9354C219.697 10.8555 219.86 10.7668 220.055 10.6706L220.592 11.1998L218.153 15.7222L217.274 15.4334C217.242 15.2411 217.209 15.0485 217.177 14.8561C217.144 14.6638 216.998 14.4712 216.738 14.2789C216.087 13.7337 215.08 13.2685 213.713 12.8836C212.348 12.4989 210.819 12.3063 209.128 12.3063C208.477 12.3063 207.86 12.3469 207.275 12.4265C206.689 12.507 206.168 12.6432 205.714 12.8355C205.258 13.0281 204.9 13.2766 204.64 13.5814C204.38 13.8865 204.25 14.263 204.25 14.7119C204.25 15.4179 204.648 15.9227 205.445 16.2274C206.242 16.5325 207.242 16.7729 208.445 16.9489C209.648 17.1257 210.949 17.3021 212.348 17.4781C213.746 17.6549 215.047 17.9518 216.25 18.3683C217.453 18.7854 218.453 19.3948 219.25 20.1963C220.046 20.9984 220.445 22.1048 220.445 23.5161C220.445 24.9276 220.096 26.0822 219.397 26.9798C218.697 27.878 217.827 28.584 216.787 29.0966C215.746 29.6102 214.599 29.9467 213.347 30.1069C212.096 30.267 210.916 30.3476 209.811 30.3476C208.705 30.3476 207.608 30.243 206.518 30.0348C205.428 29.8266 204.437 29.5862 203.543 29.3133C202.648 29.0411 201.892 28.7841 201.274 28.5433C200.656 28.3029 200.282 28.1824 200.152 28.1824C199.925 28.1824 199.73 28.2789 199.567 28.4712L198.884 27.9901L201.128 22.6019L202.055 22.8423Z" fill="black"/>
<path d="M38.5296 0.000244141H2.42244C1.08402 0.000244141 -0.000976562 1.07032 -0.000976562 2.39032V38.1287C-0.000976562 39.4488 1.08402 40.5188 2.42244 40.5188H38.5296C39.868 40.5188 40.953 39.4488 40.953 38.1287V2.39032C40.953 1.07032 39.868 0.000244141 38.5296 0.000244141Z" fill="black"/>
<path d="M38.0405 12.3216L37.6928 6.17682C37.6928 6.17682 37.7057 5.6335 37.3121 5.62045C36.9189 5.60734 36.9845 6.18959 36.9845 6.18959C36.9845 6.18959 37.0304 11.8171 37.0107 12.2441C37.0304 12.6061 36.7024 12.7808 36.6303 12.7228C36.2826 12.7161 36.2826 12.2636 36.2826 12.2636L36.1909 6.23481C36.1909 6.23481 36.3285 5.54935 35.83 5.55571V5.5607C35.3515 5.57057 35.4887 6.2154 35.4887 6.2154L35.3948 12.2678C35.3948 12.2678 35.3948 12.7207 35.0471 12.727C34.9751 12.7854 34.6471 12.6107 34.6668 12.2484C34.6471 11.8213 34.693 6.19384 34.693 6.19384C34.693 6.19384 34.7586 5.61194 34.365 5.62464C33.9715 5.63775 33.9847 6.18108 33.9847 6.18108L33.7047 12.2095C33.7047 12.2095 33.5542 12.8692 34.0657 13.3478C34.4578 13.7151 35.0733 14.6547 35.0998 15.3921C35.126 16.1292 35.0034 27.0438 35.0034 27.0438C35.0034 27.0438 34.8952 27.9102 35.83 27.9492C36.7579 27.9233 36.6465 27.0371 36.6465 27.0371C36.6465 27.0371 36.5515 16.125 36.5777 15.3875C36.6038 14.6501 37.2874 13.8271 37.6795 13.4602C38.191 12.9816 38.0405 12.3216 38.0405 12.3216Z" fill="white"/>
<path d="M15.5398 37.286C15.5398 37.286 17.9769 35.4668 22.7029 35.1755C27.1454 34.9341 29.8911 36.2275 29.8911 36.2275C32.0862 34.1093 32.9694 32.1593 33.0669 29.5603C32.6844 25.4869 30.3614 23.5726 23.7427 20.2164C17.1241 16.8606 16.8754 12.4021 16.8754 12.4021C16.7578 8.00615 21.9082 9.29366 23.5402 10.6614C25.4059 12.225 27.8014 11.3705 27.8014 11.3705C27.8014 11.3705 27.8229 11.3341 27.7064 11.291C26.2948 10.7699 25.6178 10.2181 25.2267 9.53406C24.6374 8.50318 24.926 7.58691 22.7441 6.8113C18.3611 5.61855 15.0129 8.53717 14.876 11.3861C14.324 17.2229 19.9386 20.8672 22.419 22.0992C28.4154 25.3935 29.4298 27.2915 29.1204 29.507C28.1312 37.0689 10.6758 35.7408 4.17151 26.5308C3.84927 25.9475 3.97473 26.7004 3.97473 26.7004C3.97473 26.7004 5.06152 32.1124 11.6604 35.6647C12.5694 36.1544 13.2917 36.5125 14.2706 36.8522" fill="white"/>
<path d="M21.6376 2.35191C21.5501 2.07936 21.3902 1.82518 21.1594 1.6198C20.4676 1.00363 19.4019 1.05524 18.7793 1.73539C18.5722 1.96199 18.4399 2.22925 18.3815 2.50817C17.7331 2.22253 16.9466 2.36323 16.4459 2.90975C15.8232 3.58955 15.8792 4.64054 16.571 5.25635C16.9219 5.56885 17.3688 5.70956 17.8051 5.68341C18.0015 6.07615 18.1589 6.48586 18.2284 6.65131C20.5249 5.60102 22.8548 6.53641 22.8548 6.53641L23.2724 5.19908C23.534 5.11106 23.7774 4.95834 23.9756 4.74199C24.5983 4.06184 24.5423 3.01121 23.8506 2.39504C23.2172 1.83119 22.2709 1.82695 21.6376 2.35191Z" fill="white"/>
<path d="M19.192 4.72191L19.2443 4.75161C19.2425 4.78413 19.2483 4.81347 19.2612 4.83927C19.2838 4.88382 19.3307 4.92871 19.4017 4.97396C19.4727 5.01956 19.5548 5.06092 19.6476 5.09839C19.7407 5.13587 19.8383 5.16733 19.9407 5.19278C20.0433 5.21824 20.1358 5.23309 20.2179 5.23732C20.2784 5.24051 20.3573 5.24051 20.4541 5.23662C20.5512 5.23273 20.6465 5.21894 20.7411 5.19526C20.8354 5.17122 20.9179 5.13622 20.9881 5.0892C21.0588 5.04254 21.096 4.97785 21.1003 4.89477C21.1046 4.81205 21.0766 4.74913 21.0164 4.70636C20.9558 4.66322 20.8752 4.63 20.7745 4.60666C20.6734 4.58298 20.558 4.56531 20.4282 4.55258C20.2981 4.5402 20.1655 4.525 20.0304 4.50697C19.8952 4.48895 19.763 4.46385 19.6343 4.43132C19.5053 4.39915 19.3913 4.35072 19.2927 4.28568C19.1941 4.22098 19.116 4.13543 19.059 4.02938C19.0017 3.92333 18.9776 3.78758 18.9862 3.62214C18.992 3.51043 19.0235 3.4019 19.0809 3.29691C19.1382 3.19156 19.2228 3.10036 19.3343 3.0233C19.4458 2.94623 19.5848 2.88613 19.7519 2.84265C19.9189 2.79953 20.1128 2.78362 20.3343 2.79563C20.5236 2.80589 20.687 2.82922 20.8251 2.86527C20.9627 2.90169 21.0817 2.93881 21.1817 2.97663C21.2817 3.01446 21.3659 3.04981 21.434 3.08233C21.5021 3.11485 21.5591 3.13253 21.6057 3.135C21.6555 3.13748 21.6921 3.12864 21.7147 3.10814L21.7767 3.1548L21.3717 3.81021L21.3193 3.78546C21.3147 3.73491 21.3029 3.69249 21.2831 3.65891C21.2566 3.61436 21.2114 3.56947 21.1476 3.52457C21.0838 3.47968 21.0078 3.43831 20.9204 3.4012C20.8329 3.36408 20.7379 3.33262 20.6354 3.30751C20.5329 3.28206 20.4297 3.26651 20.3261 3.26085C20.2476 3.25661 20.1662 3.25873 20.0816 3.26686C19.997 3.27499 19.92 3.28984 19.8512 3.31105C19.782 3.33262 19.7239 3.36302 19.677 3.4019C19.6304 3.44114 19.6052 3.49099 19.602 3.55215C19.5978 3.63875 19.6253 3.70522 19.6855 3.75188C19.7458 3.79854 19.8264 3.83531 19.9271 3.86217C20.0275 3.88939 20.1429 3.9099 20.2731 3.92439C20.4028 3.93853 20.5354 3.95444 20.6706 3.97282C20.8057 3.99085 20.9376 4.01701 21.0667 4.05094C21.1953 4.08489 21.3093 4.13438 21.4079 4.19942C21.5064 4.26412 21.5846 4.3486 21.6419 4.45289C21.6989 4.55717 21.7233 4.6901 21.7151 4.85236C21.705 5.03936 21.648 5.18995 21.5437 5.30343C21.4394 5.41688 21.3122 5.50386 21.1623 5.56435C21.0121 5.62511 20.8519 5.66222 20.6809 5.67674C20.3777 5.70182 20.3763 5.69547 20.2053 5.68628C20.0017 5.67533 19.8318 5.65445 19.6956 5.62369C19.5594 5.59294 19.4465 5.55793 19.3572 5.51873C19.268 5.47947 19.1974 5.4452 19.145 5.41512C19.0931 5.38545 19.0472 5.36917 19.0081 5.36707C18.983 5.36599 18.959 5.3791 18.9361 5.40667L18.8633 5.35929L19.192 4.72191Z" fill="#231F20"/>
<path d="M17.5829 37.0635C17.9108 36.9599 23.0222 34.8686 28.0841 36.4813C33.1037 38.5381 38.3215 37.1021 38.3215 37.1021C38.3215 37.1021 34.7877 40.3621 27.8199 37.6069C23.4341 35.8722 17.8015 37.5097 17.7481 37.4902C17.1828 37.5485 17.2549 37.1668 17.5829 37.0635Z" fill="white"/>
<path d="M4.43962 16.9202C4.43962 16.9202 8.96925 21.8966 17.5435 23.2463C26.1224 24.76 27.5476 28.0547 26.9881 30.1935C26.4303 32.3241 20.6085 34.4886 14.8022 31.487C12.4454 29.9952 11.6715 27.6061 11.4443 26.3123C11.374 25.4759 11.6454 25.5795 11.7941 26.347C11.8726 26.5799 12.6336 29.525 17.3861 30.892C19.2751 31.2413 23.2495 31.7458 24.2334 29.689C24.9811 27.231 22.1477 25.6915 14.1462 23.8805C8.7857 22.1727 6.3021 19.5853 4.36076 17.1879C4.04605 16.5668 4.43962 16.9202 4.43962 16.9202Z" fill="white"/>
<path d="M23.1757 8.13199C23.075 8.08104 22.9693 8.06549 22.8863 8.08319C22.8777 8.07576 22.8679 8.06867 22.8567 8.06305C22.79 8.02907 22.7121 8.04643 22.6828 8.10158C22.6565 8.15173 22.6792 8.21573 22.7334 8.2525C22.7355 8.35361 22.8225 8.46958 22.9599 8.53954C23.1349 8.62828 23.3221 8.61347 23.3816 8.50101C23.4415 8.38862 23.3506 8.22107 23.1757 8.13199Z" fill="#231F20"/>
<path d="M60.4455 44.6315C60.1641 44.6315 60.0762 44.5448 60.0762 44.2673V32.8593C60.0762 32.5818 60.1641 32.4951 60.4455 32.4951H61.8345C62.1329 32.4951 62.2039 32.5818 62.2039 32.8593V44.2673C62.2039 44.5448 62.1153 44.6315 61.8345 44.6315H60.4455Z" fill="#F0EBEA"/>
<path d="M60.4455 44.6315C60.1641 44.6315 60.0762 44.5448 60.0762 44.2673V32.8593C60.0762 32.5818 60.1641 32.4951 60.4455 32.4951H61.8345C62.1329 32.4951 62.2039 32.5818 62.2039 32.8593V44.2673C62.2039 44.5448 62.1153 44.6315 61.8345 44.6315H60.4455Z" fill="black"/>
<path d="M84.8374 42.9569C87.0689 42.9569 88.4085 41.1434 88.4085 39.1616C88.4085 37.165 87.0689 35.3663 84.8374 35.3663H82.5287V42.9569H84.8374ZM80.666 34.147C80.666 33.9035 80.7432 33.8271 80.9894 33.8271H84.8527C87.8848 33.8271 90.3013 36.1285 90.3013 39.1616C90.3013 42.1951 87.8848 44.4964 84.8527 44.4964H80.9894C80.7432 44.4964 80.666 44.4204 80.666 44.1765V34.147Z" fill="#F0EBEA"/>
<path d="M84.8374 42.9569C87.0689 42.9569 88.4085 41.1434 88.4085 39.1616C88.4085 37.165 87.0689 35.3663 84.8374 35.3663H82.5287V42.9569H84.8374ZM80.666 34.147C80.666 33.9035 80.7432 33.8271 80.9894 33.8271H84.8527C87.8848 33.8271 90.3013 36.1285 90.3013 39.1616C90.3013 42.1951 87.8848 44.4964 84.8527 44.4964H80.9894C80.7432 44.4964 80.666 44.4204 80.666 44.1765V34.147Z" fill="black"/>
<path d="M94.152 44.4579C93.9058 44.4579 93.8286 44.3818 93.8286 44.1379V34.1089C93.8286 33.8649 93.9058 33.7886 94.152 33.7886H95.3674C95.6295 33.7886 95.6908 33.8649 95.6908 34.1089V44.1379C95.6908 44.3818 95.6136 44.4579 95.3674 44.4579H94.152Z" fill="#F0EBEA"/>
<path d="M94.152 44.4579C93.9058 44.4579 93.8286 44.3818 93.8286 44.1379V34.1089C93.8286 33.8649 93.9058 33.7886 94.152 33.7886H95.3674C95.6295 33.7886 95.6908 33.8649 95.6908 34.1089V44.1379C95.6908 44.3818 95.6136 44.4579 95.3674 44.4579H94.152Z" fill="black"/>
<path d="M105.781 40.5577L103.996 36.7624H103.965L102.195 40.5577H105.781ZM103.688 33.9424C103.811 33.7597 103.842 33.6377 103.95 33.6377H103.996C104.119 33.6377 104.15 33.7597 104.273 33.9424L109.475 44.2157C109.553 44.3681 109.46 44.5357 109.276 44.5357H107.844C107.629 44.5357 107.536 44.4593 107.413 44.2157L106.413 42.1276H101.549L100.548 44.2157C100.41 44.4593 100.348 44.5357 100.118 44.5357H98.6855C98.5011 44.5357 98.4086 44.3681 98.4858 44.2157L103.688 33.9424Z" fill="#F0EBEA"/>
<path d="M105.781 40.5577L103.996 36.7624H103.965L102.195 40.5577H105.781ZM103.688 33.9424C103.811 33.7597 103.842 33.6377 103.95 33.6377H103.996C104.119 33.6377 104.15 33.7597 104.273 33.9424L109.475 44.2157C109.553 44.3681 109.46 44.5357 109.276 44.5357H107.844C107.629 44.5357 107.536 44.4593 107.413 44.2157L106.413 42.1276H101.549L100.548 44.2157C100.41 44.4593 100.348 44.5357 100.118 44.5357H98.6855C98.5011 44.5357 98.4086 44.3681 98.4858 44.2157L103.688 33.9424Z" fill="black"/>
<path d="M142.85 42.786C143.057 42.9981 143.095 43.0957 142.869 43.2915C141.663 44.3188 139.761 44.971 137.934 44.971C134.223 44.971 131.172 42.2967 131.172 39.0519C131.172 35.8066 134.223 33.1323 137.934 33.1323C139.761 33.1323 141.663 33.7846 142.869 34.8122C143.076 34.9915 143.039 35.0894 142.832 35.3011L141.965 36.1163C141.852 36.2142 141.758 36.2797 141.663 36.2797C141.588 36.2797 141.513 36.2467 141.4 36.1492C140.571 35.3828 139.385 34.861 137.934 34.861C135.297 34.861 133.47 36.9156 133.47 39.0519C133.47 41.1715 135.297 43.2427 137.934 43.2427C139.385 43.2427 140.571 42.7206 141.419 41.9379C141.513 41.8566 141.607 41.8075 141.683 41.8075C141.777 41.8075 141.87 41.8729 141.984 41.9708L142.85 42.786Z" fill="#F0EBEA"/>
<path d="M142.85 42.786C143.057 42.9981 143.095 43.0957 142.869 43.2915C141.663 44.3188 139.761 44.971 137.934 44.971C134.223 44.971 131.172 42.2967 131.172 39.0519C131.172 35.8066 134.223 33.1323 137.934 33.1323C139.761 33.1323 141.663 33.7846 142.869 34.8122C143.076 34.9915 143.039 35.0894 142.832 35.3011L141.965 36.1163C141.852 36.2142 141.758 36.2797 141.663 36.2797C141.588 36.2797 141.513 36.2467 141.4 36.1492C140.571 35.3828 139.385 34.861 137.934 34.861C135.297 34.861 133.47 36.9156 133.47 39.0519C133.47 41.1715 135.297 43.2427 137.934 43.2427C139.385 43.2427 140.571 42.7206 141.419 41.9379C141.513 41.8566 141.607 41.8075 141.683 41.8075C141.777 41.8075 141.87 41.8729 141.984 41.9708L142.85 42.786Z" fill="black"/>
<path d="M147.301 34.5757C147.301 34.3322 147.38 34.2749 147.635 34.2749H148.874C149.144 34.2749 149.224 34.3463 149.224 34.5757V40.1092C149.224 42.0733 150.24 42.9766 151.957 42.9766C153.672 42.9766 154.689 42.0733 154.689 40.1092V34.5757C154.689 34.3463 154.769 34.2749 155.023 34.2749H156.262C156.533 34.2749 156.612 34.3463 156.612 34.5757V40.181C156.612 43.0338 154.546 44.4959 151.957 44.4959C149.367 44.4959 147.301 43.0338 147.301 40.181V34.5757Z" fill="#F0EBEA"/>
<path d="M147.301 34.5757C147.301 34.3322 147.38 34.2749 147.635 34.2749H148.874C149.144 34.2749 149.224 34.3463 149.224 34.5757V40.1092C149.224 42.0733 150.24 42.9766 151.957 42.9766C153.672 42.9766 154.689 42.0733 154.689 40.1092V34.5757C154.689 34.3463 154.769 34.2749 155.023 34.2749H156.262C156.533 34.2749 156.612 34.3463 156.612 34.5757V40.181C156.612 43.0338 154.546 44.4959 151.957 44.4959C149.367 44.4959 147.301 43.0338 147.301 40.181V34.5757Z" fill="black"/>
<path d="M161.684 44.4662C161.453 44.4662 161.38 44.3944 161.38 44.1651V34.7323C161.38 34.5029 161.453 34.4312 161.684 34.4312H162.828C163.074 34.4312 163.132 34.5029 163.132 34.7323V44.1651C163.132 44.3944 163.06 44.4662 162.828 44.4662H161.684Z" fill="#F0EBEA"/>
<path d="M161.684 44.4662C161.453 44.4662 161.38 44.3944 161.38 44.1651V34.7323C161.38 34.5029 161.453 34.4312 161.684 34.4312H162.828C163.074 34.4312 163.132 34.5029 163.132 34.7323V44.1651C163.132 44.3944 163.06 44.4662 162.828 44.4662H161.684Z" fill="black"/>
<path d="M167.687 42.5443C167.766 42.4008 167.829 42.3294 167.94 42.3294C167.988 42.3294 168.067 42.358 168.146 42.4008C169.16 43.0032 170.347 43.2609 171.424 43.2609C172.802 43.2609 173.831 42.8883 173.831 41.8274C173.831 40.7951 172.77 40.5084 170.997 40.308C169.271 40.1072 167.307 39.5624 167.307 37.5697C167.307 36.3367 168.321 34.4302 171.393 34.4302C173.024 34.4302 174.069 34.846 175.288 35.5197C175.51 35.6343 175.478 35.7492 175.367 35.9354L174.893 36.6524C174.813 36.7814 174.734 36.8673 174.624 36.8673C174.575 36.8673 174.512 36.8387 174.433 36.7955C173.42 36.179 172.58 35.9496 171.551 35.9496C169.572 35.9496 169.16 36.81 169.16 37.5124C169.16 38.4729 170.284 38.6879 171.899 38.8741C173.831 39.0749 175.684 39.6342 175.684 41.7415C175.684 43.3185 174.306 44.7806 171.582 44.7806C169.872 44.7806 168.463 44.4221 167.291 43.6911C167.069 43.5621 167.085 43.4617 167.212 43.2609L167.687 42.5443Z" fill="#F0EBEA"/>
<path d="M167.687 42.5443C167.766 42.4008 167.829 42.3294 167.94 42.3294C167.988 42.3294 168.067 42.358 168.146 42.4008C169.16 43.0032 170.347 43.2609 171.424 43.2609C172.802 43.2609 173.831 42.8883 173.831 41.8274C173.831 40.7951 172.77 40.5084 170.997 40.308C169.271 40.1072 167.307 39.5624 167.307 37.5697C167.307 36.3367 168.321 34.4302 171.393 34.4302C173.024 34.4302 174.069 34.846 175.288 35.5197C175.51 35.6343 175.478 35.7492 175.367 35.9354L174.893 36.6524C174.813 36.7814 174.734 36.8673 174.624 36.8673C174.575 36.8673 174.512 36.8387 174.433 36.7955C173.42 36.179 172.58 35.9496 171.551 35.9496C169.572 35.9496 169.16 36.81 169.16 37.5124C169.16 38.4729 170.284 38.6879 171.899 38.8741C173.831 39.0749 175.684 39.6342 175.684 41.7415C175.684 43.3185 174.306 44.7806 171.582 44.7806C169.872 44.7806 168.463 44.4221 167.291 43.6911C167.069 43.5621 167.085 43.4617 167.212 43.2609L167.687 42.5443Z" fill="black"/>
<path d="M180.284 44.6225C180.052 44.6225 179.98 44.5507 179.98 44.3213V34.8886C179.98 34.6592 180.052 34.5874 180.284 34.5874H181.427C181.674 34.5874 181.731 34.6592 181.731 34.8886V44.3213C181.731 44.5507 181.659 44.6225 181.427 44.6225H180.284Z" fill="#F0EBEA"/>
<path d="M180.284 44.6225C180.052 44.6225 179.98 44.5507 179.98 44.3213V34.8886C179.98 34.6592 180.052 34.5874 180.284 34.5874H181.427C181.674 34.5874 181.731 34.6592 181.731 34.8886V44.3213C181.731 44.5507 181.659 44.6225 181.427 44.6225H180.284Z" fill="black"/>
<path d="M186.412 34.5304C186.412 34.43 186.443 34.4014 186.555 34.4014H186.666C186.778 34.4014 186.842 34.4445 186.922 34.5163L194.018 41.2393V34.8889C194.018 34.6453 194.097 34.5877 194.353 34.5877H195.612C195.868 34.5877 195.947 34.6453 195.947 34.8889V44.68C195.947 44.7804 195.915 44.809 195.804 44.809H195.692C195.596 44.809 195.516 44.7659 195.421 44.6945L188.341 37.8993V44.3216C188.341 44.551 188.245 44.6228 187.99 44.6228H186.746C186.491 44.6228 186.412 44.551 186.412 44.3216V34.5304Z" fill="#F0EBEA"/>
<path d="M186.412 34.5304C186.412 34.43 186.443 34.4014 186.555 34.4014H186.666C186.778 34.4014 186.842 34.4445 186.922 34.5163L194.018 41.2393V34.8889C194.018 34.6453 194.097 34.5877 194.353 34.5877H195.612C195.868 34.5877 195.947 34.6453 195.947 34.8889V44.68C195.947 44.7804 195.915 44.809 195.804 44.809H195.692C195.596 44.809 195.516 44.7659 195.421 44.6945L188.341 37.8993V44.3216C188.341 44.551 188.245 44.6228 187.99 44.6228H186.746C186.491 44.6228 186.412 44.551 186.412 44.3216V34.5304Z" fill="black"/>
<path d="M200.426 34.7323C200.426 34.5029 200.502 34.4312 200.746 34.4312H207.609C207.869 34.4312 207.945 34.5029 207.945 34.7323V35.6066C207.945 35.836 207.869 35.9074 207.609 35.9074H202.275V38.6602H207.38C207.64 38.6602 207.716 38.7316 207.716 38.9755V39.8501C207.716 40.0792 207.64 40.1509 207.38 40.1509H202.275V42.9751H207.609C207.869 42.9751 207.945 43.0469 207.945 43.2904V44.1651C207.945 44.3944 207.869 44.4662 207.609 44.4662H200.746C200.486 44.4662 200.426 44.3944 200.426 44.1651V34.7323Z" fill="#F0EBEA"/>
<path d="M200.426 34.7323C200.426 34.5029 200.502 34.4312 200.746 34.4312H207.609C207.869 34.4312 207.945 34.5029 207.945 34.7323V35.6066C207.945 35.836 207.869 35.9074 207.609 35.9074H202.275V38.6602H207.38C207.64 38.6602 207.716 38.7316 207.716 38.9755V39.8501C207.716 40.0792 207.64 40.1509 207.38 40.1509H202.275V42.9751H207.609C207.869 42.9751 207.945 43.0469 207.945 43.2904V44.1651C207.945 44.3944 207.869 44.4662 207.609 44.4662H200.746C200.486 44.4662 200.426 44.3944 200.426 44.1651V34.7323Z" fill="black"/>
<path d="M111.881 33.8369C111.881 33.7301 111.911 33.6997 112.02 33.6997H112.127C112.235 33.6997 112.296 33.7453 112.373 33.8217L119.223 40.97V34.218C119.223 33.9588 119.3 33.8981 119.546 33.8981H120.762C121.008 33.8981 121.086 33.9588 121.086 34.218V44.6281C121.086 44.7349 121.054 44.7653 120.947 44.7653H120.839C120.747 44.7653 120.67 44.7197 120.578 44.6433L113.744 37.4187V44.247C113.744 44.491 113.651 44.5673 113.405 44.5673H112.204C111.958 44.5673 111.881 44.491 111.881 44.247V33.8369Z" fill="#F0EBEA"/>
<path d="M111.881 33.8369C111.881 33.7301 111.911 33.6997 112.02 33.6997H112.127C112.235 33.6997 112.296 33.7453 112.373 33.8217L119.223 40.97V34.218C119.223 33.9588 119.3 33.8981 119.546 33.8981H120.762C121.008 33.8981 121.086 33.9588 121.086 34.218V44.6281C121.086 44.7349 121.054 44.7653 120.947 44.7653H120.839C120.747 44.7653 120.67 44.7197 120.578 44.6433L113.744 37.4187V44.247C113.744 44.491 113.651 44.5673 113.405 44.5673H112.204C111.958 44.5673 111.881 44.491 111.881 44.247V33.8369Z" fill="black"/>
<path d="M66.8237 33.7583C66.8237 33.6518 66.8544 33.6211 66.9622 33.6211H67.07C67.1778 33.6211 67.2391 33.6671 67.3162 33.7431L74.1657 40.8914V34.1393C74.1657 33.8802 74.2423 33.8195 74.4885 33.8195H75.705C75.9512 33.8195 76.0278 33.8802 76.0278 34.1393V44.5495C76.0278 44.6563 75.9972 44.687 75.8894 44.687H75.7816C75.6896 44.687 75.6125 44.6411 75.52 44.565L68.6859 37.34V44.1688C68.6859 44.4124 68.594 44.4887 68.3477 44.4887H67.1466C66.9003 44.4887 66.8237 44.4124 66.8237 44.1688V33.7583Z" fill="#F0EBEA"/>
<path d="M66.8237 33.7583C66.8237 33.6518 66.8544 33.6211 66.9622 33.6211H67.07C67.1778 33.6211 67.2391 33.6671 67.3162 33.7431L74.1657 40.8914V34.1393C74.1657 33.8802 74.2423 33.8195 74.4885 33.8195H75.705C75.9512 33.8195 76.0278 33.8802 76.0278 34.1393V44.5495C76.0278 44.6563 75.9972 44.687 75.8894 44.687H75.7816C75.6896 44.687 75.6125 44.6411 75.52 44.565L68.6859 37.34V44.1688C68.6859 44.4124 68.594 44.4887 68.3477 44.4887H67.1466C66.9003 44.4887 66.8237 44.4124 66.8237 44.1688V33.7583Z" fill="black"/>
</svg>
